<mxfile host="app.diagrams.net" modified="2023-10-15T17:27:19.684Z" agent="Mozilla/5.0 (Windows NT 10.0; Win64; x64) AppleWebKit/537.36 (KHTML, like Gecko) Chrome/117.0.0.0 Safari/537.36" etag="flWtBJduhnxS9GE9toF3" version="22.0.4" type="google">
  <diagram name="Page-1" id="03018318-947c-dd8e-b7a3-06fadd420f32">
    <mxGraphModel grid="1" page="1" gridSize="10" guides="1" tooltips="1" connect="1" arrows="1" fold="1" pageScale="1" pageWidth="1100" pageHeight="850" background="none" math="0" shadow="0">
      <root>
        <mxCell id="0" />
        <mxCell id="1" parent="0" />
        <mxCell id="qYC7P0EI7lyvb2j1Zvjj-5" value="" style="group;movable=1;resizable=1;rotatable=1;deletable=1;editable=1;locked=0;connectable=1;" connectable="0" vertex="1" parent="1">
          <mxGeometry x="30" y="224" width="1050" height="860" as="geometry" />
        </mxCell>
        <mxCell id="677b7b8949515195-1" value="" style="whiteSpace=wrap;html=1;rounded=0;shadow=0;labelBackgroundColor=none;strokeColor=#000000;strokeWidth=1;fillColor=none;fontFamily=Verdana;fontSize=12;fontColor=#000000;align=center;comic=1;" vertex="1" parent="qYC7P0EI7lyvb2j1Zvjj-5">
          <mxGeometry x="-10" y="-200" width="1060" height="870" as="geometry" />
        </mxCell>
        <mxCell id="BP2sfN2S9ao4BCfIzF7K-1" value="&lt;h1&gt;&lt;span style=&quot;font-weight: normal;&quot;&gt;Club name:&lt;/span&gt;&lt;/h1&gt;" style="text;html=1;strokeColor=none;fillColor=none;spacing=5;spacingTop=-20;whiteSpace=wrap;overflow=hidden;rounded=0;" vertex="1" parent="qYC7P0EI7lyvb2j1Zvjj-5">
          <mxGeometry x="266" y="-11" width="290" height="50" as="geometry" />
        </mxCell>
        <mxCell id="5WyYVaLcLOMr_epY7U-2-2" value="&lt;h1&gt;&lt;font style=&quot;font-size: 30px;&quot;&gt;Add a club&lt;/font&gt;&lt;/h1&gt;" style="text;html=1;strokeColor=none;fillColor=none;spacing=5;spacingTop=-20;whiteSpace=wrap;overflow=hidden;rounded=0;" vertex="1" parent="qYC7P0EI7lyvb2j1Zvjj-5">
          <mxGeometry x="405" y="-114" width="230" height="44" as="geometry" />
        </mxCell>
        <mxCell id="mudEd2aArbQALnRcs8rZ-1" value="&lt;span style=&quot;font-size: 14px;&quot;&gt;Enter club name&lt;/span&gt;" style="rounded=1;fillColor=#FFFFFF;strokeColor=#CCCCCC;html=1;whiteSpace=wrap;fontColor=#596780;align=left;fontSize=12;spacingLeft=10;sketch=0;" vertex="1" parent="qYC7P0EI7lyvb2j1Zvjj-5">
          <mxGeometry x="480" y="-7.5" width="246" height="33" as="geometry" />
        </mxCell>
        <mxCell id="mudEd2aArbQALnRcs8rZ-3" value="&lt;h1&gt;&lt;span style=&quot;font-weight: normal;&quot;&gt;Club website:&lt;/span&gt;&lt;/h1&gt;" style="text;html=1;strokeColor=none;fillColor=none;spacing=5;spacingTop=-20;whiteSpace=wrap;overflow=hidden;rounded=0;" vertex="1" parent="qYC7P0EI7lyvb2j1Zvjj-5">
          <mxGeometry x="266" y="49" width="290" height="50" as="geometry" />
        </mxCell>
        <mxCell id="mudEd2aArbQALnRcs8rZ-4" value="&lt;font style=&quot;font-size: 14px;&quot;&gt;Enter clubs home page URL in full&lt;/font&gt;" style="rounded=1;fillColor=#FFFFFF;strokeColor=#CCCCCC;html=1;whiteSpace=wrap;fontColor=#596780;align=left;fontSize=12;spacingLeft=10;sketch=0;" vertex="1" parent="qYC7P0EI7lyvb2j1Zvjj-5">
          <mxGeometry x="481" y="52" width="245" height="33" as="geometry" />
        </mxCell>
        <mxCell id="mudEd2aArbQALnRcs8rZ-7" value="&lt;h1&gt;&lt;span style=&quot;font-weight: normal;&quot;&gt;Club address:&lt;/span&gt;&lt;/h1&gt;" style="text;html=1;strokeColor=none;fillColor=none;spacing=5;spacingTop=-20;whiteSpace=wrap;overflow=hidden;rounded=0;" vertex="1" parent="qYC7P0EI7lyvb2j1Zvjj-5">
          <mxGeometry x="265" y="110.5" width="290" height="50" as="geometry" />
        </mxCell>
        <mxCell id="mudEd2aArbQALnRcs8rZ-10" value="&lt;font style=&quot;font-size: 14px;&quot;&gt;Enter clubs address&lt;/font&gt;" style="rounded=1;fillColor=#FFFFFF;strokeColor=#CCCCCC;html=1;whiteSpace=wrap;fontColor=#596780;align=left;fontSize=12;spacingLeft=10;sketch=0;verticalAlign=top;" vertex="1" parent="qYC7P0EI7lyvb2j1Zvjj-5">
          <mxGeometry x="480" y="116" width="246" height="104" as="geometry" />
        </mxCell>
        <mxCell id="mudEd2aArbQALnRcs8rZ-17" value="&lt;h1&gt;&lt;span style=&quot;font-weight: normal;&quot;&gt;Club postcode:&lt;/span&gt;&lt;/h1&gt;" style="text;html=1;strokeColor=none;fillColor=none;spacing=5;spacingTop=-20;whiteSpace=wrap;overflow=hidden;rounded=0;" vertex="1" parent="qYC7P0EI7lyvb2j1Zvjj-5">
          <mxGeometry x="265" y="235" width="290" height="50" as="geometry" />
        </mxCell>
        <mxCell id="mudEd2aArbQALnRcs8rZ-15" value="&lt;font style=&quot;font-size: 14px;&quot;&gt;Enter clubs postcode&lt;/font&gt;" style="rounded=1;fillColor=#FFFFFF;strokeColor=#CCCCCC;html=1;whiteSpace=wrap;fontColor=#596780;align=left;fontSize=12;spacingLeft=10;sketch=0;" vertex="1" parent="qYC7P0EI7lyvb2j1Zvjj-5">
          <mxGeometry x="480" y="240.5" width="246" height="33" as="geometry" />
        </mxCell>
        <mxCell id="mudEd2aArbQALnRcs8rZ-18" value="&lt;h1&gt;&lt;span style=&quot;font-weight: normal;&quot;&gt;Club phone:&lt;/span&gt;&lt;/h1&gt;" style="text;html=1;strokeColor=none;fillColor=none;spacing=5;spacingTop=-20;whiteSpace=wrap;overflow=hidden;rounded=0;" vertex="1" parent="qYC7P0EI7lyvb2j1Zvjj-5">
          <mxGeometry x="265" y="296" width="290" height="50" as="geometry" />
        </mxCell>
        <mxCell id="mudEd2aArbQALnRcs8rZ-19" value="&lt;font style=&quot;font-size: 14px;&quot;&gt;Enter clubs phone number&lt;/font&gt;" style="rounded=1;fillColor=#FFFFFF;strokeColor=#CCCCCC;html=1;whiteSpace=wrap;fontColor=#596780;align=left;fontSize=12;spacingLeft=10;sketch=0;" vertex="1" parent="qYC7P0EI7lyvb2j1Zvjj-5">
          <mxGeometry x="480" y="301.5" width="246" height="33" as="geometry" />
        </mxCell>
        <mxCell id="mudEd2aArbQALnRcs8rZ-30" value="&lt;font style=&quot;font-size: 28px;&quot;&gt;Send for approval&lt;/font&gt;" style="rounded=1;whiteSpace=wrap;html=1;verticalAlign=bottom;" vertex="1" parent="qYC7P0EI7lyvb2j1Zvjj-5">
          <mxGeometry x="338" y="410" width="297" height="40" as="geometry" />
        </mxCell>
        <mxCell id="qYC7P0EI7lyvb2j1Zvjj-28" value="&lt;div style=&quot;text-align: justify&quot;&gt;&lt;br&gt;&lt;/div&gt;" style="whiteSpace=wrap;html=1;rounded=0;shadow=0;labelBackgroundColor=none;strokeWidth=1;fontFamily=Verdana;fontSize=12;align=center;verticalAlign=top;spacing=10;comic=1;" vertex="1" parent="qYC7P0EI7lyvb2j1Zvjj-5">
          <mxGeometry y="496" width="1040" height="160" as="geometry" />
        </mxCell>
        <mxCell id="8phkjEfu20HQz3NuUWRH-15" value="&lt;font face=&quot;Arial&quot; style=&quot;font-size: 22px;&quot;&gt;&lt;u style=&quot;&quot;&gt;About us&lt;/u&gt;&lt;/font&gt;" style="text;html=1;points=[];align=center;verticalAlign=top;spacingTop=-4;fontSize=19;fontFamily=Verdana" vertex="1" parent="qYC7P0EI7lyvb2j1Zvjj-5">
          <mxGeometry x="70" y="518" width="170" height="20" as="geometry" />
        </mxCell>
        <mxCell id="8phkjEfu20HQz3NuUWRH-14" value="&lt;font face=&quot;Arial&quot; style=&quot;font-size: 22px;&quot;&gt;&lt;u style=&quot;&quot;&gt;Site map&lt;/u&gt;&lt;/font&gt;" style="text;html=1;points=[];align=center;verticalAlign=top;spacingTop=-4;fontSize=19;fontFamily=Verdana" vertex="1" parent="qYC7P0EI7lyvb2j1Zvjj-5">
          <mxGeometry x="70" y="556" width="170" height="20" as="geometry" />
        </mxCell>
        <mxCell id="qYC7P0EI7lyvb2j1Zvjj-29" value="&lt;font face=&quot;Arial&quot;&gt;Â© 2023 &amp;lt;website&amp;gt;&lt;/font&gt;" style="text;html=1;points=[];align=center;verticalAlign=top;spacingTop=-4;fontSize=19;fontFamily=Verdana" vertex="1" parent="qYC7P0EI7lyvb2j1Zvjj-5">
          <mxGeometry x="90" y="617" width="170" height="20" as="geometry" />
        </mxCell>
        <mxCell id="677b7b8949515195-10" value="" style="whiteSpace=wrap;html=1;rounded=0;shadow=0;labelBackgroundColor=none;strokeWidth=1;fillColor=none;fontFamily=Verdana;fontSize=12;align=center;comic=1;" vertex="1" parent="1">
          <mxGeometry x="30" y="40" width="1040" height="50" as="geometry" />
        </mxCell>
        <mxCell id="677b7b8949515195-12" value="&lt;font style=&quot;font-size: 16px;&quot;&gt;&lt;b style=&quot;border-color: var(--border-color);&quot;&gt;My game chats | Find games | Create a game |&amp;nbsp;&lt;/b&gt;&lt;b&gt;Update handicap | Manage subscriptions | Sign out&lt;/b&gt;&lt;/font&gt;" style="text;html=1;points=[];align=left;verticalAlign=top;spacingTop=-4;fontSize=14;fontFamily=Verdana" vertex="1" parent="1">
          <mxGeometry x="174" y="55" width="170" height="20" as="geometry" />
        </mxCell>
        <mxCell id="8phkjEfu20HQz3NuUWRH-20" value="&lt;font face=&quot;Comic Sans MS&quot;&gt;&lt;font style=&quot;font-size: 22px;&quot;&gt;&lt;br&gt;&lt;/font&gt;&lt;/font&gt;" style="text;html=1;points=[];align=left;verticalAlign=top;spacingTop=-4;fontSize=19;fontFamily=Verdana" vertex="1" parent="1">
          <mxGeometry x="701" y="520" width="62.12" height="33" as="geometry" />
        </mxCell>
        <mxCell id="IgBskjyFUGVjYucHrxcE-1" value="LOGO" style="whiteSpace=wrap;html=1;rounded=0;shadow=0;labelBackgroundColor=none;strokeWidth=1;fontFamily=Verdana;fontSize=28;align=center;comic=1;" vertex="1" parent="1">
          <mxGeometry x="38" y="47" width="112" height="35" as="geometry" />
        </mxCell>
        <mxCell id="5WyYVaLcLOMr_epY7U-2-1" value="&lt;span style=&quot;font-size: 17px;&quot;&gt;Note this will require admin approval&amp;nbsp;&lt;/span&gt;" style="text;html=1;strokeColor=none;fillColor=none;align=center;verticalAlign=middle;whiteSpace=wrap;rounded=0;" vertex="1" parent="1">
          <mxGeometry x="380" y="158" width="285" height="30" as="geometry" />
        </mxCell>
      </root>
    </mxGraphModel>
  </diagram>
</mxfile>
